# Blender 4.4.3
# www.blender.org
o torso.002
v 0.093750 0.031250 -1.218750
v -0.093750 0.031250 0.031250
v -0.093750 0.031250 0.031250
v -0.093750 0.031250 -1.218750
v -0.093750 0.031250 -1.218750
v 0.093750 0.031250 -1.218750
v -0.093750 -0.593750 -1.218750
v 0.093750 -0.593750 -1.218750
v -0.093750 0.031250 -1.218750
v -0.093750 0.031250 0.031250
v -0.093750 -0.593750 -1.218750
v -0.093750 -0.593750 0.031250
v -0.093750 -0.593750 -1.218750
v -0.093750 -0.593750 0.031250
v 0.093750 -0.593750 -1.218750
v 0.093750 -0.593750 0.031250
v 0.093750 0.031250 0.031250
v 0.093750 -0.593750 -1.218750
v 0.093750 -0.593750 0.031250
v 0.093750 0.031250 0.031250
v -0.093750 -0.593750 0.031250
v 0.093750 -0.593750 0.031250
v 0.093750 0.031250 -1.218750
v 0.093750 0.031250 0.031250
vn -0.0000 -0.0000 1.0000
vn 1.0000 -0.0000 -0.0000
vn -0.0000 -1.0000 -0.0000
vn -1.0000 -0.0000 -0.0000
vn -0.0000 1.0000 -0.0000
vn -0.0000 -0.0000 -1.0000
vt 0.531250 1.000000
vt 0.531250 0.937500
vt 0.375000 0.937500
vt 0.562500 0.937500
vt 0.718750 0.937500
vt 0.718750 0.312500
vt 0.343750 0.937500
vt 0.375000 0.312500
vt 0.531250 0.312500
vt 0.562500 0.312500
vt 0.375000 1.000000
vt 0.343750 0.312500
vt 0.687500 0.937500
vt 0.687500 1.000000
s 1
f 20/1/1 3/2/1 21/3/1
f 17/4/2 19/5/2 18/6/2
f 16/7/3 14/3/3 13/8/3
f 12/3/4 10/2/4 9/9/4
f 2/2/5 24/4/5 23/10/5
f 20/1/1 21/3/1 22/11/1
f 17/4/2 18/6/2 1/10/2
f 16/7/3 13/8/3 15/12/3
f 12/3/4 9/9/4 11/8/4
f 2/2/5 23/10/5 4/9/5
f 8/1/6 5/13/6 6/14/6
f 8/1/6 7/2/6 5/13/6
