# Blender 4.4.1
# www.blender.org
o head
v 0.250000 0.250000 0.000000
v -0.250000 0.250000 0.500000
v -0.250000 0.250000 0.500000
v -0.250000 0.250000 0.000000
v -0.250000 0.250000 0.000000
v 0.250000 0.250000 0.000000
v -0.250000 -0.250000 0.000000
v 0.250000 -0.250000 0.000000
v -0.250000 0.250000 0.000000
v -0.250000 0.250000 0.500000
v -0.250000 -0.250000 0.000000
v -0.250000 -0.250000 0.500000
v -0.250000 -0.250000 0.000000
v -0.250000 -0.250000 0.500000
v 0.250000 -0.250000 0.000000
v 0.250000 -0.250000 0.500000
v 0.250000 0.250000 0.500000
v 0.250000 -0.250000 0.000000
v 0.250000 -0.250000 0.500000
v 0.250000 0.250000 0.500000
v -0.250000 -0.250000 0.500000
v 0.250000 -0.250000 0.500000
v 0.250000 0.250000 0.000000
v 0.250000 0.250000 0.500000
v 0.281250 0.281250 -0.031250
v -0.281250 0.281250 0.531250
v -0.281250 0.281250 0.531250
v -0.281250 0.281250 -0.031250
v -0.281250 0.281250 -0.031250
v 0.281250 0.281250 -0.031250
v -0.281250 -0.281250 -0.031250
v 0.281250 -0.281250 -0.031250
v -0.281250 0.281250 -0.031250
v -0.281250 0.281250 0.531250
v -0.281250 -0.281250 -0.031250
v -0.281250 -0.281250 0.531250
v -0.281250 -0.281250 -0.031250
v -0.281250 -0.281250 0.531250
v 0.281250 -0.281250 -0.031250
v 0.281250 -0.281250 0.531250
v 0.281250 0.281250 0.531250
v 0.281250 -0.281250 -0.031250
v 0.281250 -0.281250 0.531250
v 0.281250 0.281250 0.531250
v -0.281250 -0.281250 0.531250
v 0.281250 -0.281250 0.531250
v 0.281250 0.281250 -0.031250
v 0.281250 0.281250 0.531250
vn -0.0000 -0.0000 1.0000
vn 1.0000 -0.0000 -0.0000
vn -0.0000 -1.0000 -0.0000
vn -1.0000 -0.0000 -0.0000
vn -0.0000 1.0000 -0.0000
vn -0.0000 -0.0000 -1.0000
vt 0.125000 1.000000
vt 0.125000 0.875000
vt 0.250000 0.875000
vt 0.500000 0.875000
vt 0.375000 0.875000
vt 0.375000 0.750000
vt 0.250000 0.750000
vt 0.125000 0.750000
vt 0.000000 0.875000
vt 0.000000 0.750000
vt 0.250000 1.000000
vt 0.500000 0.750000
vt 0.375000 1.000000
vt 0.625000 1.000000
vt 0.625000 0.875000
vt 0.750000 0.875000
vt 1.000000 0.875000
vt 0.875000 0.875000
vt 0.875000 0.750000
vt 0.750000 0.750000
vt 0.625000 0.750000
vt 0.750000 1.000000
vt 1.000000 0.750000
vt 0.875000 1.000000
s 0
f 20/1/1 3/2/1 21/3/1
f 17/4/2 19/5/2 18/6/2
f 16/5/3 14/3/3 13/7/3
f 12/3/4 10/2/4 9/8/4
f 2/2/5 24/9/5 23/10/5
f 20/1/1 21/3/1 22/11/1
f 17/4/2 18/6/2 1/12/2
f 16/5/3 13/7/3 15/6/3
f 12/3/4 9/8/4 11/7/4
f 2/2/5 23/10/5 4/8/5
f 8/13/6 5/3/6 6/11/6
f 8/13/6 7/5/6 5/3/6
f 44/14/1 27/15/1 45/16/1
f 41/17/2 43/18/2 42/19/2
f 40/18/3 38/16/3 37/20/3
f 36/16/4 34/15/4 33/21/4
f 26/15/5 48/4/5 47/12/5
f 44/14/1 45/16/1 46/22/1
f 41/17/2 42/19/2 25/23/2
f 40/18/3 37/20/3 39/19/3
f 36/16/4 33/21/4 35/20/4
f 26/15/5 47/12/5 28/21/5
f 32/24/6 29/16/6 30/22/6
f 32/24/6 31/18/6 29/16/6
