# Blender 4.4.1
# www.blender.org
o right_arm_wide
v 0.125000 0.125000 -0.625000
v -0.125000 0.125000 0.125000
v -0.125000 0.125000 0.125000
v -0.125000 0.125000 -0.625000
v -0.125000 0.125000 -0.625000
v 0.125000 0.125000 -0.625000
v -0.125000 -0.125000 -0.625000
v 0.125000 -0.125000 -0.625000
v -0.125000 0.125000 -0.625000
v -0.125000 0.125000 0.125000
v -0.125000 -0.125000 -0.625000
v -0.125000 -0.125000 0.125000
v -0.125000 -0.125000 -0.625000
v -0.125000 -0.125000 0.125000
v 0.125000 -0.125000 -0.625000
v 0.125000 -0.125000 0.125000
v 0.125000 0.125000 0.125000
v 0.125000 -0.125000 -0.625000
v 0.125000 -0.125000 0.125000
v 0.125000 0.125000 0.125000
v -0.125000 -0.125000 0.125000
v 0.125000 -0.125000 0.125000
v 0.125000 0.125000 -0.625000
v 0.125000 0.125000 0.125000
v 0.140625 0.140625 0.140625
v 0.140625 0.140625 -0.640625
v 0.140625 -0.140625 0.140625
v -0.140625 -0.140625 0.140625
v 0.140625 0.140625 0.140625
v 0.140625 -0.140625 0.140625
v 0.140625 -0.140625 -0.640625
v 0.140625 0.140625 0.140625
v 0.140625 -0.140625 0.140625
v 0.140625 -0.140625 -0.640625
v -0.140625 -0.140625 0.140625
v -0.140625 -0.140625 -0.640625
v -0.140625 -0.140625 0.140625
v -0.140625 -0.140625 -0.640625
v -0.140625 0.140625 0.140625
v -0.140625 0.140625 -0.640625
v 0.140625 -0.140625 -0.640625
v -0.140625 -0.140625 -0.640625
v 0.140625 0.140625 -0.640625
v -0.140625 0.140625 -0.640625
v -0.140625 0.140625 -0.640625
v -0.140625 0.140625 0.140625
v -0.140625 0.140625 0.140625
v 0.140625 0.140625 -0.640625
vn -0.0000 -0.0000 1.0000
vn 1.0000 -0.0000 -0.0000
vn -0.0000 -1.0000 -0.0000
vn -1.0000 -0.0000 -0.0000
vn -0.0000 1.0000 -0.0000
vn -0.0000 -0.0000 -1.0000
vt 0.687500 0.750000
vt 0.687500 0.687500
vt 0.750000 0.687500
vt 0.875000 0.687500
vt 0.812500 0.687500
vt 0.812500 0.500000
vt 0.750000 0.500000
vt 0.687500 0.500000
vt 0.625000 0.687500
vt 0.625000 0.500000
vt 0.750000 0.750000
vt 0.875000 0.500000
vt 0.812500 0.750000
vt 0.750000 0.437500
vt 0.687500 0.250000
vt 0.750000 0.250000
vt 0.875000 0.437500
vt 0.812500 0.437500
vt 0.812500 0.250000
vt 0.687500 0.437500
vt 0.625000 0.437500
vt 0.625000 0.250000
vt 0.875000 0.250000
s 0
f 20/1/1 3/2/1 21/3/1
f 17/4/2 19/5/2 18/6/2
f 16/5/3 14/3/3 13/7/3
f 12/3/4 10/2/4 9/8/4
f 2/2/5 24/9/5 23/10/5
f 20/1/1 21/3/1 22/11/1
f 17/4/2 18/6/2 1/12/2
f 16/5/3 13/7/3 15/6/3
f 12/3/4 9/8/4 11/7/4
f 2/2/5 23/10/5 4/8/5
f 8/13/6 5/3/6 6/11/6
f 8/13/6 7/5/6 5/3/6
f 37/14/4 40/15/4 38/16/4
f 32/17/2 30/18/2 31/19/2
f 33/18/3 35/14/3 36/16/3
f 29/8/1 28/14/1 27/7/1
f 41/6/6 44/14/6 43/7/6
f 29/8/1 46/20/1 28/14/1
f 41/6/6 42/18/6 44/14/6
f 37/14/4 39/20/4 40/15/4
f 47/20/5 25/21/5 26/22/5
f 47/20/5 26/22/5 45/15/5
f 33/18/3 36/16/3 34/19/3
f 32/17/2 31/19/2 48/23/2
